ffmpeg started on 2026-03-24 at 13:01:05
Report written to "D:\Convert\FFMetrics\reports\ssim_report-6.txt"
Log level: 32
Command line:
ffmpeg -hide_banner -nostdin -r 24000/1001 -i "F:\\\xc0\xed\xe8\xec\xe5\\LightFamily\\\xcc\xee\xe6\xe5\xf2 \xeb\xe8 \xf1\xf3\xf9\xe5\xf1\xf2\xe2\xee\xe2\xe0\xf2\xfc \xe4\xf0\xf3\xe6\xe1\xe0 \xec\xe5\xe6\xe4\xf3 \xec\xf3\xe6\xf7\xe8\xed\xee\xe9 \xe8 \xe6\xe5\xed\xf9\xe8\xed\xee\xe9 (\xcd\xe5\xf2, \xfd\xf2\xee \xed\xe5 \xf2\xe0\xea!)\\LightFamilyDUB_\xcc\xee\xe6\xe5\xf2_\xeb\xe8_\xf1\xf3\xf9\xe5\xf1\xf2\xe2\xee\xe2\xe0\xf2\xfc_\xe4\xf0\xf3\xe6\xe1\xe0_\xec\xe5\xe6\xe4\xf3_\xef\xe0\xf0\xed\xe5\xec_\xe8_\xe4\xe5\xe2\xf3\xf8\xea\xee\xe9_08_HEVC.mkv" -r 24000/1001 -i "F:\\\xc0\xed\xe8\xec\xe5\\LightFamily\\\xcc\xee\xe6\xe5\xf2 \xeb\xe8 \xf1\xf3\xf9\xe5\xf1\xf2\xe2\xee\xe2\xe0\xf2\xfc \xe4\xf0\xf3\xe6\xe1\xe0 \xec\xe5\xe6\xe4\xf3 \xec\xf3\xe6\xf7\xe8\xed\xee\xe9 \xe8 \xe6\xe5\xed\xf9\xe8\xed\xee\xe9 (\xcd\xe5\xf2, \xfd\xf2\xee \xed\xe5 \xf2\xe0\xea!)\\LightFamilyDUB_\xcc\xee\xe6\xe5\xf2_\xeb\xe8_\xf1\xf3\xf9\xe5\xf1\xf2\xe2\xee\xe2\xe0\xf2\xfc_\xe4\xf0\xf3\xe6\xe1\xe0_\xec\xe5\xe6\xe4\xf3_\xef\xe0\xf0\xed\xe5\xec_\xe8_\xe4\xe5\xe2\xf3\xf8\xea\xee\xe9_08.mp4" -lavfi "[0:v]settb=AVTB,setpts=PTS-STARTPTS,format=pix_fmts=yuv420p10le,fps=24000/1001,scale=1920:1080:flags=lanczos:param0=3:out_range=limited:out_chroma_loc=left,setsar=1/1,setdar=(1920/1080)*(1/1)[main];[1:v]settb=AVTB,setpts=PTS-STARTPTS,format=pix_fmts=yuv420p,fps=24000/1001,scale=1920:1080:flags=lanczos:param0=3:out_range=limited:out_chroma_loc=left,setsar=1/1,setdar=(1920/1080)*(1/1)[ref];[main][ref]ssim=eof_action=endall:stats_file='D\\:/Convert/FFMetrics/logs/ssim_logfile-6.txt'" -f null -
Input #0, matroska,webm, from 'F:\Аниме\LightFamily\Может ли существовать дружба между мужчиной и женщиной (Нет, это не так!)\LightFamilyDUB_Может_ли_существовать_дружба_между_парнем_и_девушкой_08_HEVC.mkv':
  Metadata:
    COMPATIBLE_BRANDS: mp42mp41
    MAJOR_BRAND     : mp42
    MINOR_VERSION   : 0
    ENCODER         : Lavf61.7.100
  Duration: 00:23:40.12, start: -0.021000, bitrate: 857 kb/s
  Stream #0:0(eng): Video: hevc (Main 10), yuv420p10le(tv, progressive), 1920x1080 [SAR 1:1 DAR 16:9], 23.98 fps, 23.98 tbr, 1k tbn (default)
      Metadata:
        HANDLER_NAME    : Mainconcept Video Media Handler
        VENDOR_ID       : [0][0][0][0]
        ENCODER         : Lavc61.19.100 libx265
        BPS             : 657361
        DURATION        : 00:23:40.085708333
        NUMBER_OF_FRAMES: 34048
        NUMBER_OF_BYTES : 116688739
        _STATISTICS_WRITING_APP: mkvpropedit v94.0 ('Initiate') 64-bit
        _STATISTICS_WRITING_DATE_UTC: 2026-03-24 06:46:47
        _STATISTICS_TAGS: BPS DURATION NUMBER_OF_FRAMES NUMBER_OF_BYTES
  Stream #0:1(eng): Audio: aac (LC), 48000 Hz, stereo, fltp (default)
      Metadata:
        HANDLER_NAME    : #Mainconcept MP4 Sound Media Handler
        VENDOR_ID       : [0][0][0][0]
        ENCODER         : Lavc61.19.100 aac
        BPS             : 196124
        DURATION        : 00:23:40.096000000
        NUMBER_OF_FRAMES: 66568
        NUMBER_OF_BYTES : 34814503
        _STATISTICS_WRITING_APP: mkvpropedit v94.0 ('Initiate') 64-bit
        _STATISTICS_WRITING_DATE_UTC: 2026-03-24 06:46:47
        _STATISTICS_TAGS: BPS DURATION NUMBER_OF_FRAMES NUMBER_OF_BYTES
Input #1, mov,mp4,m4a,3gp,3g2,mj2, from 'F:\Аниме\LightFamily\Может ли существовать дружба между мужчиной и женщиной (Нет, это не так!)\LightFamilyDUB_Может_ли_существовать_дружба_между_парнем_и_девушкой_08.mp4':
  Metadata:
    major_brand     : mp42
    minor_version   : 0
    compatible_brands: mp42mp41
    creation_time   : 2025-10-12T20:40:41.000000Z
  Duration: 00:23:40.09, start: 0.000000, bitrate: 7946 kb/s
  Stream #1:0[0x1](eng): Video: h264 (Main) (avc1 / 0x31637661), yuv420p(progressive), 1920x1080 [SAR 1:1 DAR 16:9], 7562 kb/s, 23.98 fps, 23.98 tbr, 24k tbn (default)
      Metadata:
        creation_time   : 2025-10-12T20:40:41.000000Z
        handler_name    : Mainconcept Video Media Handler
        vendor_id       : [0][0][0][0]
        encoder         : AVC Coding
  Stream #1:1[0x2](eng): Audio: aac (LC) (mp4a / 0x6134706D), 48000 Hz, stereo, fltp, 381 kb/s (default)
      Metadata:
        creation_time   : 2025-10-12T20:40:41.000000Z
        handler_name    : #Mainconcept MP4 Sound Media Handler
        vendor_id       : [0][0][0][0]
Stream mapping:
  Stream #0:0 (hevc) -> settb:default
  Stream #1:0 (h264) -> settb:default
  ssim:default -> Stream #0:0 (wrapped_avframe)
  Stream #0:1 -> #0:1 (aac (native) -> pcm_s16le (native))
Output #0, null, to 'pipe:':
  Metadata:
    COMPATIBLE_BRANDS: mp42mp41
    MAJOR_BRAND     : mp42
    MINOR_VERSION   : 0
    encoder         : Lavf61.7.100
  Stream #0:0: Video: wrapped_avframe, yuv420p10le(tv, progressive), 1920x1080 [SAR 1:1 DAR 16:9], q=2-31, 200 kb/s, 23.98 fps, 23.98 tbn
      Metadata:
        encoder         : Lavc61.19.100 wrapped_avframe
  Stream #0:1(eng): Audio: pcm_s16le, 48000 Hz, stereo, s16, 1536 kb/s (default)
      Metadata:
        HANDLER_NAME    : #Mainconcept MP4 Sound Media Handler
        VENDOR_ID       : [0][0][0][0]
        _STATISTICS_TAGS: BPS DURATION NUMBER_OF_FRAMES NUMBER_OF_BYTES
        BPS             : 196124
        DURATION        : 00:23:40.096000000
        NUMBER_OF_FRAMES: 66568
        NUMBER_OF_BYTES : 34814503
        _STATISTICS_WRITING_APP: mkvpropedit v94.0 ('Initiate') 64-bit
        _STATISTICS_WRITING_DATE_UTC: 2026-03-24 06:46:47
        encoder         : Lavc61.19.100 pcm_s16le
frame=  177 fps=0.0 q=-0.0 size=N/A time=00:00:07.38 bitrate=N/A speed=14.4x    frame=  417 fps=401 q=-0.0 size=N/A time=00:00:17.39 bitrate=N/A speed=16.7x    frame=  655 fps=422 q=-0.0 size=N/A time=00:00:27.31 bitrate=N/A speed=17.6x    frame=  854 fps=414 q=-0.0 size=N/A time=00:00:35.61 bitrate=N/A speed=17.3x    frame= 1011 fps=393 q=-0.0 size=N/A time=00:00:42.16 bitrate=N/A speed=16.4x    frame= 1176 fps=379 q=-0.0 size=N/A time=00:00:49.04 bitrate=N/A speed=15.8x    frame= 1380 fps=382 q=-0.0 size=N/A time=00:00:57.55 bitrate=N/A speed=15.9x    frame= 1584 fps=384 q=-0.0 size=N/A time=00:01:06.06 bitrate=N/A speed=  16x    frame= 1759 fps=379 q=-0.0 size=N/A time=00:01:13.36 bitrate=N/A speed=15.8x    frame= 1954 fps=378 q=-0.0 size=N/A time=00:01:21.49 bitrate=N/A speed=15.8x    frame= 2122 fps=374 q=-0.0 size=N/A time=00:01:28.50 bitrate=N/A speed=15.6x    frame= 2286 fps=369 q=-0.0 size=N/A time=00:01:35.34 bitrate=N/A speed=15.4x    frame= 2467 fps=368 q=-0.0 size=N/A time=00:01:42.89 bitrate=N/A speed=15.4x    frame= 2654 fps=367 q=-0.0 size=N/A time=00:01:50.69 bitrate=N/A speed=15.3x    frame= 2837 fps=367 q=-0.0 size=N/A time=00:01:58.32 bitrate=N/A speed=15.3x    frame= 3022 fps=366 q=-0.0 size=N/A time=00:02:06.04 bitrate=N/A speed=15.3x    frame= 3242 fps=370 q=-0.0 size=N/A time=00:02:15.21 bitrate=N/A speed=15.4x    frame= 3458 fps=373 q=-0.0 size=N/A time=00:02:24.22 bitrate=N/A speed=15.5x    frame= 3686 fps=376 q=-0.0 size=N/A time=00:02:33.73 bitrate=N/A speed=15.7x    frame= 3913 fps=379 q=-0.0 size=N/A time=00:02:43.20 bitrate=N/A speed=15.8x    frame= 4122 fps=381 q=-0.0 size=N/A time=00:02:51.92 bitrate=N/A speed=15.9x    frame= 4324 fps=381 q=-0.0 size=N/A time=00:03:00.34 bitrate=N/A speed=15.9x    frame= 4559 fps=385 q=-0.0 size=N/A time=00:03:10.14 bitrate=N/A speed=  16x    frame= 4799 fps=388 q=-0.0 size=N/A time=00:03:20.15 bitrate=N/A speed=16.2x    frame= 5037 fps=390 q=-0.0 size=N/A time=00:03:30.08 bitrate=N/A speed=16.3x    frame= 5254 fps=391 q=-0.0 size=N/A time=00:03:39.13 bitrate=N/A speed=16.3x    frame= 5446 fps=391 q=-0.0 size=N/A time=00:03:47.14 bitrate=N/A speed=16.3x    frame= 5650 fps=391 q=-0.0 size=N/A time=00:03:55.65 bitrate=N/A speed=16.3x    frame= 5874 fps=392 q=-0.0 size=N/A time=00:04:04.99 bitrate=N/A speed=16.4x    frame= 6101 fps=394 q=-0.0 size=N/A time=00:04:14.46 bitrate=N/A speed=16.4x    frame= 6321 fps=395 q=-0.0 size=N/A time=00:04:23.63 bitrate=N/A speed=16.5x    frame= 6555 fps=397 q=-0.0 size=N/A time=00:04:33.39 bitrate=N/A speed=16.6x    frame= 6745 fps=396 q=-0.0 size=N/A time=00:04:41.32 bitrate=N/A speed=16.5x    frame= 6971 fps=397 q=-0.0 size=N/A time=00:04:50.74 bitrate=N/A speed=16.6x    frame= 7207 fps=399 q=-0.0 size=N/A time=00:05:00.59 bitrate=N/A speed=16.6x    frame= 7405 fps=399 q=-0.0 size=N/A time=00:05:08.85 bitrate=N/A speed=16.6x    frame= 7619 fps=399 q=-0.0 size=N/A time=00:05:17.77 bitrate=N/A speed=16.6x    frame= 7831 fps=399 q=-0.0 size=N/A time=00:05:26.61 bitrate=N/A speed=16.7x    frame= 8059 fps=401 q=-0.0 size=N/A time=00:05:36.12 bitrate=N/A speed=16.7x    frame= 8288 fps=401 q=-0.0 size=N/A time=00:05:45.67 bitrate=N/A speed=16.7x    frame= 8502 fps=402 q=-0.0 size=N/A time=00:05:54.60 bitrate=N/A speed=16.8x    frame= 8731 fps=403 q=-0.0 size=N/A time=00:06:04.15 bitrate=N/A speed=16.8x    frame= 8958 fps=404 q=-0.0 size=N/A time=00:06:13.62 bitrate=N/A speed=16.8x    frame= 9192 fps=405 q=-0.0 size=N/A time=00:06:23.38 bitrate=N/A speed=16.9x    frame= 9429 fps=406 q=-0.0 size=N/A time=00:06:33.26 bitrate=N/A speed=16.9x    frame= 9647 fps=406 q=-0.0 size=N/A time=00:06:42.36 bitrate=N/A speed=  17x    frame= 9873 fps=407 q=-0.0 size=N/A time=00:06:51.78 bitrate=N/A speed=  17x    frame=10121 fps=409 q=-0.0 size=N/A time=00:07:02.13 bitrate=N/A speed=  17x    frame=10332 fps=409 q=-0.0 size=N/A time=00:07:10.93 bitrate=N/A speed=  17x    frame=10544 fps=409 q=-0.0 size=N/A time=00:07:19.77 bitrate=N/A speed=17.1x    frame=10773 fps=409 q=-0.0 size=N/A time=00:07:29.32 bitrate=N/A speed=17.1x    frame=11007 fps=410 q=-0.0 size=N/A time=00:07:39.08 bitrate=N/A speed=17.1x    frame=11228 fps=411 q=-0.0 size=N/A time=00:07:48.30 bitrate=N/A speed=17.1x    frame=11468 fps=412 q=-0.0 size=N/A time=00:07:58.31 bitrate=N/A speed=17.2x    frame=11704 fps=412 q=-0.0 size=N/A time=00:08:08.15 bitrate=N/A speed=17.2x    frame=11925 fps=413 q=-0.0 size=N/A time=00:08:17.37 bitrate=N/A speed=17.2x    frame=12158 fps=413 q=-0.0 size=N/A time=00:08:27.08 bitrate=N/A speed=17.2x    frame=12378 fps=414 q=-0.0 size=N/A time=00:08:36.26 bitrate=N/A speed=17.2x    frame=12597 fps=414 q=-0.0 size=N/A time=00:08:45.39 bitrate=N/A speed=17.3x    frame=12828 fps=414 q=-0.0 size=N/A time=00:08:55.03 bitrate=N/A speed=17.3x    frame=13071 fps=415 q=-0.0 size=N/A time=00:09:05.16 bitrate=N/A speed=17.3x    frame=13306 fps=416 q=-0.0 size=N/A time=00:09:14.97 bitrate=N/A speed=17.3x    frame=13547 fps=417 q=-0.0 size=N/A time=00:09:25.02 bitrate=N/A speed=17.4x    frame=13783 fps=418 q=-0.0 size=N/A time=00:09:34.86 bitrate=N/A speed=17.4x    frame=14033 fps=418 q=-0.0 size=N/A time=00:09:45.29 bitrate=N/A speed=17.5x    frame=14263 fps=419 q=-0.0 size=N/A time=00:09:54.88 bitrate=N/A speed=17.5x    frame=14488 fps=419 q=-0.0 size=N/A time=00:10:04.27 bitrate=N/A speed=17.5x    frame=14717 fps=420 q=-0.0 size=N/A time=00:10:13.82 bitrate=N/A speed=17.5x    frame=14951 fps=420 q=-0.0 size=N/A time=00:10:23.58 bitrate=N/A speed=17.5x    frame=15188 fps=421 q=-0.0 size=N/A time=00:10:33.46 bitrate=N/A speed=17.5x    frame=15422 fps=421 q=-0.0 size=N/A time=00:10:43.22 bitrate=N/A speed=17.6x    frame=15663 fps=422 q=-0.0 size=N/A time=00:10:53.27 bitrate=N/A speed=17.6x    frame=15891 fps=422 q=-0.0 size=N/A time=00:11:02.78 bitrate=N/A speed=17.6x    frame=16114 fps=422 q=-0.0 size=N/A time=00:11:12.08 bitrate=N/A speed=17.6x    frame=16358 fps=423 q=-0.0 size=N/A time=00:11:22.26 bitrate=N/A speed=17.6x    frame=16594 fps=423 q=-0.0 size=N/A time=00:11:32.10 bitrate=N/A speed=17.7x    frame=16775 fps=422 q=-0.0 size=N/A time=00:11:39.65 bitrate=N/A speed=17.6x    frame=17009 fps=423 q=-0.0 size=N/A time=00:11:49.41 bitrate=N/A speed=17.6x    frame=17240 fps=423 q=-0.0 size=N/A time=00:11:59.05 bitrate=N/A speed=17.6x    frame=17469 fps=423 q=-0.0 size=N/A time=00:12:08.60 bitrate=N/A speed=17.7x    frame=17689 fps=423 q=-0.0 size=N/A time=00:12:17.77 bitrate=N/A speed=17.7x    frame=17910 fps=423 q=-0.0 size=N/A time=00:12:27.03 bitrate=N/A speed=17.7x    frame=18158 fps=424 q=-0.0 size=N/A time=00:12:37.33 bitrate=N/A speed=17.7x    frame=18339 fps=423 q=-0.0 size=N/A time=00:12:44.88 bitrate=N/A speed=17.7x    frame=18555 fps=423 q=-0.0 size=N/A time=00:12:53.89 bitrate=N/A speed=17.6x    frame=18785 fps=423 q=-0.0 size=N/A time=00:13:03.49 bitrate=N/A speed=17.7x    frame=19007 fps=424 q=-0.0 size=N/A time=00:13:12.75 bitrate=N/A speed=17.7x    frame=19237 fps=424 q=-0.0 size=N/A time=00:13:22.34 bitrate=N/A speed=17.7x    frame=19464 fps=424 q=-0.0 size=N/A time=00:13:31.81 bitrate=N/A speed=17.7x    frame=19663 fps=424 q=-0.0 size=N/A time=00:13:40.11 bitrate=N/A speed=17.7x    frame=19870 fps=423 q=-0.0 size=N/A time=00:13:48.74 bitrate=N/A speed=17.7x    frame=20090 fps=423 q=-0.0 size=N/A time=00:13:57.92 bitrate=N/A speed=17.7x    frame=20333 fps=424 q=-0.0 size=N/A time=00:14:08.05 bitrate=N/A speed=17.7x    frame=20572 fps=424 q=-0.0 size=N/A time=00:14:18.02 bitrate=N/A speed=17.7x    frame=20814 fps=425 q=-0.0 size=N/A time=00:14:28.11 bitrate=N/A speed=17.7x    frame=21045 fps=425 q=-0.0 size=N/A time=00:14:37.75 bitrate=N/A speed=17.7x    frame=21275 fps=425 q=-0.0 size=N/A time=00:14:47.34 bitrate=N/A speed=17.7x    frame=21513 fps=426 q=-0.0 size=N/A time=00:14:57.27 bitrate=N/A speed=17.8x    frame=21754 fps=426 q=-0.0 size=N/A time=00:15:07.32 bitrate=N/A speed=17.8x    frame=21968 fps=426 q=-0.0 size=N/A time=00:15:16.24 bitrate=N/A speed=17.8x    frame=22197 fps=426 q=-0.0 size=N/A time=00:15:25.79 bitrate=N/A speed=17.8x    frame=22439 fps=426 q=-0.0 size=N/A time=00:15:35.89 bitrate=N/A speed=17.8x    frame=22664 fps=427 q=-0.0 size=N/A time=00:15:45.27 bitrate=N/A speed=17.8x    frame=22902 fps=427 q=-0.0 size=N/A time=00:15:55.20 bitrate=N/A speed=17.8x    frame=23138 fps=427 q=-0.0 size=N/A time=00:16:05.04 bitrate=N/A speed=17.8x    frame=23382 fps=428 q=-0.0 size=N/A time=00:16:15.22 bitrate=N/A speed=17.8x    frame=23612 fps=428 q=-0.0 size=N/A time=00:16:24.81 bitrate=N/A speed=17.8x    frame=23840 fps=428 q=-0.0 size=N/A time=00:16:34.32 bitrate=N/A speed=17.9x    frame=24071 fps=428 q=-0.0 size=N/A time=00:16:43.96 bitrate=N/A speed=17.9x    frame=24299 fps=428 q=-0.0 size=N/A time=00:16:53.47 bitrate=N/A speed=17.9x    frame=24525 fps=428 q=-0.0 size=N/A time=00:17:02.89 bitrate=N/A speed=17.9x    frame=24761 fps=429 q=-0.0 size=N/A time=00:17:12.74 bitrate=N/A speed=17.9x    frame=25004 fps=429 q=-0.0 size=N/A time=00:17:22.87 bitrate=N/A speed=17.9x    frame=25242 fps=429 q=-0.0 size=N/A time=00:17:32.80 bitrate=N/A speed=17.9x    frame=25483 fps=430 q=-0.0 size=N/A time=00:17:42.85 bitrate=N/A speed=17.9x    frame=25714 fps=430 q=-0.0 size=N/A time=00:17:52.48 bitrate=N/A speed=17.9x    frame=25949 fps=430 q=-0.0 size=N/A time=00:18:02.28 bitrate=N/A speed=17.9x    frame=26168 fps=430 q=-0.0 size=N/A time=00:18:11.42 bitrate=N/A speed=17.9x    frame=26386 fps=430 q=-0.0 size=N/A time=00:18:20.51 bitrate=N/A speed=17.9x    frame=26606 fps=430 q=-0.0 size=N/A time=00:18:29.69 bitrate=N/A speed=17.9x    frame=26835 fps=430 q=-0.0 size=N/A time=00:18:39.24 bitrate=N/A speed=17.9x    frame=27071 fps=430 q=-0.0 size=N/A time=00:18:49.08 bitrate=N/A speed=17.9x    frame=27298 fps=430 q=-0.0 size=N/A time=00:18:58.55 bitrate=N/A speed=17.9x    frame=27526 fps=430 q=-0.0 size=N/A time=00:19:08.06 bitrate=N/A speed=  18x    frame=27758 fps=431 q=-0.0 size=N/A time=00:19:17.73 bitrate=N/A speed=  18x    frame=27989 fps=431 q=-0.0 size=N/A time=00:19:27.37 bitrate=N/A speed=  18x    frame=28225 fps=431 q=-0.0 size=N/A time=00:19:37.21 bitrate=N/A speed=  18x    frame=28439 fps=431 q=-0.0 size=N/A time=00:19:46.14 bitrate=N/A speed=  18x    frame=28681 fps=431 q=-0.0 size=N/A time=00:19:56.23 bitrate=N/A speed=  18x    frame=28907 fps=431 q=-0.0 size=N/A time=00:20:05.66 bitrate=N/A speed=  18x    frame=29142 fps=431 q=-0.0 size=N/A time=00:20:15.46 bitrate=N/A speed=  18x    frame=29376 fps=431 q=-0.0 size=N/A time=00:20:25.22 bitrate=N/A speed=  18x    frame=29608 fps=432 q=-0.0 size=N/A time=00:20:34.90 bitrate=N/A speed=  18x    frame=29839 fps=432 q=-0.0 size=N/A time=00:20:44.53 bitrate=N/A speed=  18x    frame=30029 fps=431 q=-0.0 size=N/A time=00:20:52.45 bitrate=N/A speed=  18x    frame=30269 fps=431 q=-0.0 size=N/A time=00:21:02.46 bitrate=N/A speed=  18x    frame=30497 fps=431 q=-0.0 size=N/A time=00:21:11.97 bitrate=N/A speed=  18x    frame=30718 fps=431 q=-0.0 size=N/A time=00:21:21.19 bitrate=N/A speed=  18x    frame=30931 fps=431 q=-0.0 size=N/A time=00:21:30.08 bitrate=N/A speed=  18x    frame=31134 fps=431 q=-0.0 size=N/A time=00:21:38.54 bitrate=N/A speed=  18x    frame=31357 fps=431 q=-0.0 size=N/A time=00:21:47.84 bitrate=N/A speed=  18x    frame=31596 fps=431 q=-0.0 size=N/A time=00:21:57.81 bitrate=N/A speed=  18x    frame=31825 fps=431 q=-0.0 size=N/A time=00:22:07.36 bitrate=N/A speed=  18x    frame=32024 fps=431 q=-0.0 size=N/A time=00:22:15.66 bitrate=N/A speed=  18x    frame=32219 fps=431 q=-0.0 size=N/A time=00:22:23.80 bitrate=N/A speed=  18x    frame=32394 fps=430 q=-0.0 size=N/A time=00:22:31.09 bitrate=N/A speed=17.9x    frame=32606 fps=430 q=-0.0 size=N/A time=00:22:39.94 bitrate=N/A speed=17.9x    frame=32763 fps=429 q=-0.0 size=N/A time=00:22:46.49 bitrate=N/A speed=17.9x    frame=32962 fps=429 q=-0.0 size=N/A time=00:22:54.79 bitrate=N/A speed=17.9x    frame=33149 fps=428 q=-0.0 size=N/A time=00:23:02.58 bitrate=N/A speed=17.9x    frame=33350 fps=428 q=-0.0 size=N/A time=00:23:10.97 bitrate=N/A speed=17.9x    frame=33539 fps=428 q=-0.0 size=N/A time=00:23:18.85 bitrate=N/A speed=17.8x    frame=33743 fps=427 q=-0.0 size=N/A time=00:23:27.36 bitrate=N/A speed=17.8x    frame=33958 fps=427 q=-0.0 size=N/A time=00:23:36.33 bitrate=N/A speed=17.8x    [Parsed_ssim_14 @ 0000023c28f1be00] SSIM Y:0.994231 (22.388744) U:0.994595 (22.672413) V:0.994468 (22.570892) All:0.994331 (22.464905)
[out#0/null @ 0000023c2963d800] video:14630KiB audio:266272KiB subtitle:0KiB other streams:0KiB global headers:0KiB muxing overhead: unknown
frame=34048 fps=427 q=-0.0 Lsize=N/A time=00:23:40.08 bitrate=N/A speed=17.8x    
